#!OML:ASF F:\VICON\USERDATA\INSTALL\rory3\rory3.ASF
:FULLY-SPECIFIED
:DEGREES
79
root 0.2977150316019193 17.56390027121781 48.34413788161893 -2.7944299461277495 1.755532093667949 -0.32198538879134553
lfemur 14.81804177314239 -4.724091471050665 -24.544915469870077
ltibia 27.52575876049975
lfoot -4.627345428558485 -4.56832168806176
ltoes -10.588795255911625
rfemur -24.38377314319453 2.319028557568807 23.052905729773563
rtibia 34.32304222773573
rfoot -6.064552095177613 -9.25294737483364
rtoes 2.2664977821663714
lowerback 10.590125435991167 -0.884358852054318 -2.9160827645016747
upperback 0.34690360937002546 -0.8042425641381401 1.8368228905397121
thorax -5.709679740206784 -0.23908159635736517 3.179039129947737
lowerneck -16.668618029062756 -3.130138610373546 -2.1079915492578136
upperneck 20.718091264280492 -4.27771823669909 2.347765983831481
head 9.333708708475553 -2.0245796810206795 0.4842985520271462
lclavicle 2.9992450943778507e-16 5.589843890739766e-17
lhumerus -22.742103960870924 -2.995377386244216 81.27317907696154
lradius 26.31957581557973
lwrist 8.197769583628423
lhand -29.115477128903397 20.172174260235387
lfingers 7.125020000000001
lthumb -2.181294750954602 50.964717389443976
rclavicle 2.980854383012907e-16 5.457783818959171e-17
rhumerus -36.816240185143364 -24.6216319514959 -74.32394904352431
rradius 27.220829964663853
rwrist 4.632766907270969
rhand -18.09750887756958 23.278852898967624
rfingers 7.125020000000001
rthumb 7.939366655110932 -7.100784708446929
80
root 0.2536142973401889 17.601915892500443 47.60758165569601 -3.135099001655725 1.5338521999147474 -1.3460840987300589
lfemur 13.86796323359576 -5.598293304142781 -23.6033024983345
ltibia 29.767593634022504
lfoot -4.026264373503085 -4.55206830937033
ltoes -9.903027242567727
rfemur -23.01087341468841 2.371680123994048 24.39253932776638
rtibia 34.93906409578723
rfoot -6.012406624559996 -9.067794484049054
rtoes 2.824110967581902
lowerback 10.469246786169085 -0.8917822067662173 -2.443938512060967
upperback 0.32845162786326126 -0.6149288142336262 2.0057193484621707
thorax -5.692477191363022 -0.24645469587648364 3.1460271849893857
lowerneck -16.62044492166878 -3.137964795779804 -2.045559060995448
upperneck 20.733269322383922 -4.2467888573026125 2.336435607283944
head 9.322384737206667 -2.029529659270561 0.4717090272895802
lclavicle 2.9992450943792864e-16 5.589843890750075e-17
lhumerus -22.819942869603693 -2.976022710552732 81.29520120423571
lradius 26.034230246948546
lwrist 8.080450091082973
lhand -29.083235963260677 20.25276537754394
lfingers 7.125020000000001
lthumb -2.3086887387633723 50.56877315993591
rclavicle 2.9808543830128853e-16 5.457783818959016e-17
rhumerus -37.72276037480533 -26.073398624622413 -73.06309423172948
rradius 27.1183653914127
rwrist 4.820831350149293
rhand -18.10243960260225 23.261794555808113
rfingers 7.125020000000001
rthumb 7.994695369517925 -7.04084465881151
81
root 0.2156235697252804 17.6516961425633 46.84354081393137 -3.5013407823261637 1.2904629803431247 -2.427941728882011
lfemur 11.133817958885654 -5.071860112191789 -22.050904632632122
ltibia 33.1392512968179
lfoot -4.558827166231776 -5.019616995646316
ltoes -8.67553393130306
rfemur -21.721250817060064 2.426660105808518 25.71490421363296
rtibia 35.49334696729365
rfoot -5.976621890860716 -8.706525329199184
rtoes 3.623390083202014
lowerback 10.388533716613601 -0.8454879517751297 -1.7332547070640645
upperback 0.31444402812617367 -0.37895266177752496 2.1699539342139755
thorax -5.686298372074283 -0.22697981822370802 3.0269726761807925
lowerneck -16.619844994019893 -3.1771886487989396 -2.0168811288229973
upperneck 20.765748381576707 -4.203367875986021 2.330315762091332
head 9.324546683590196 -2.026374703519026 0.47552080107441935
lclavicle 2.9992450943792687e-16 5.58984389074995e-17
lhumerus -23.127537970049985 -2.585668042335898 81.45656462675534
lradius 25.7534293260095
lwrist 7.786103395916638
lhand -29.125697195298063 20.145534759765546
lfingers 7.125020000000001
lthumb -2.17649925914273 51.02273088131784
rclavicle 2.9808543830129465e-16 5.4577838189594555e-17
rhumerus -38.37477661568958 -27.402733599052894 -71.67729681729335
rradius 27.11556782700221
rwrist 5.070085557673148
rhand -18.064555972405905 23.292051708148175
rfingers 7.125020000000001
rthumb 7.988088340371377 -7.085175273047932
82
root 0.1834772696908743 17.703739112830952 45.99969274114254 -3.834571499894686 1.0215737085403473 -3.417187355579009
lfemur 7.223897967319428 -3.9866396186295976 -19.962395694289103
ltibia 37.40573432255377
lfoot -3.6252778757707835 -4.231787326115123
ltoes -8.973003012614694
rfemur -20.00261712393094 2.568337409820532 27.041003903948646
rtibia 36.054817853163236
rfoot -5.889800140120363 -8.243055697704412
rtoes 4.317451909903593
lowerback 10.342856243140854 -0.7751459051295491 -0.9592017058604014
upperback 0.28427385839004643 -0.211529739553874 2.2835132843191768
thorax -5.697484480066021 -0.19050949572337414 2.836127082408626
lowerneck -16.585837611523317 -3.2048585426325085 -1.9742222299959638
upperneck 20.79724284224898 -4.159622183879539 2.3191563698442406
head 9.31715768754113 -2.0289749087629154 0.4680705996008031
lclavicle 2.9992450943792746e-16 5.58984389074999e-17
lhumerus -23.718163542400628 -2.002837509797238 81.68626256987972
lradius 25.531977762217622
lwrist 7.467125871533336
lhand -29.0823785888754 20.26555352686884
lfingers 7.125020000000001
lthumb -2.306966771301258 50.60551153512971
rclavicle 2.9808543830129494e-16 5.457783818959475e-17
rhumerus -38.81813254951372 -28.434777770708585 -70.7427518905519
rradius 27.135185619371512
rwrist 5.3485478465686676
rhand -18.055188431770365 23.282601273726613
rfingers 7.125020000000001
rthumb 8.005036671253087 -7.053974107946447
